#VRML V2.0 utf8
# 3D model generated by easyeda2kicad.py (https://github.com/uPesy/easyeda2kicad.py)

Shape{
    appearance Appearance {
        material  Material 	{
            diffuseColor 0.07058823529411765 0.07058823529411765 0.07058823529411765
            specularColor 0.00392156862745098 0.00392156862745098 0.00392156862745098
            ambientIntensity 0.102
            transparency 0.0
            shininess 0.5
        }
    }
    geometry IndexedFaceSet {
        ccw TRUE
        solid FALSE
        coord DEF co Coordinate {
            point [
                0.1673 -0.2067 0.0157, 0.2264 -0.2067 0.0157, 0.2264 -0.2067 0.1575, 0.1082 -0.2067 0.0157, -0.2264 -0.2067 0.0157, -0.1673 -0.2067 0.0157, -0.2264 -0.2067 0.1575, -0.1083 -0.2067 0.0157, -0.0392 -0.2067 0.0157, -0.0295 -0.2067 0.0157, 0.0295 -0.2067 0.0157
            ]
        }
        coordIndex [
            0,1,2,-1,0,2,3,-1,4,5,6,-1,6,5,7,-1,7,8,6,-1,6,8,9,-1,6,9,2,-1,2,9,10,-1,2,10,3,-1,
        ]
    }
}
Shape{
    appearance Appearance {
        material  Material 	{
            diffuseColor 0.8313725490196079 0.8313725490196079 0.8196078431372549
            specularColor 0.6666666666666666 0.6666666666666666 0.6549019607843137
            ambientIntensity 0.83
            transparency 0.0
            shininess 0.5
        }
    }
    geometry IndexedFaceSet {
        ccw TRUE
        solid FALSE
        coord DEF co Coordinate {
            point [
                0.1082 -0.2067 0.0157, 0.1082 -0.2067 0.0, 0.1673 -0.2067 0.0157, 0.1673 -0.2067 0.0, -0.0295 -0.2067 0.0157, -0.0295 -0.2067 0.0, 0.0295 -0.2067 0.0157, 0.0295 -0.2067 0.0
            ]
        }
        coordIndex [
            0,1,2,-1,2,1,3,-1,4,5,6,-1,6,5,7,-1,
        ]
    }
}
Shape{
    appearance Appearance {
        material  Material 	{
            diffuseColor 0.07058823529411765 0.07058823529411765 0.07058823529411765
            specularColor 0.00392156862745098 0.00392156862745098 0.00392156862745098
            ambientIntensity 0.102
            transparency 0.0
            shininess 0.5
        }
    }
    geometry IndexedFaceSet {
        ccw TRUE
        solid FALSE
        coord DEF co Coordinate {
            point [
                0.2264 0.2067 0.1575, 0.2264 0.2067 0.0157, 0.1673 0.2067 0.0157, 0.1082 0.2067 0.0157, 0.0295 0.2067 0.0157, -0.2264 0.2067 0.1575, -0.0295 0.2067 0.0157, -0.0392 0.2067 0.0157, -0.1083 0.2067 0.0157, -0.1673 0.2067 0.0157, -0.2264 0.2067 0.0157
            ]
        }
        coordIndex [
            0,1,2,-1,2,3,0,-1,0,3,4,-1,0,4,5,-1,5,4,6,-1,5,6,7,-1,7,8,5,-1,5,8,9,-1,5,9,10,-1,
        ]
    }
}
Shape{
    appearance Appearance {
        material  Material 	{
            diffuseColor 0.8313725490196079 0.8313725490196079 0.8196078431372549
            specularColor 0.6666666666666666 0.6666666666666666 0.6549019607843137
            ambientIntensity 0.83
            transparency 0.0
            shininess 0.5
        }
    }
    geometry IndexedFaceSet {
        ccw TRUE
        solid FALSE
        coord DEF co Coordinate {
            point [
                0.1673 0.2067 0.0157, 0.1673 0.2067 0.0, 0.1082 0.2067 0.0157, 0.1082 0.2067 0.0, 0.0295 0.2067 0.0157, 0.0295 0.2067 0.0, -0.0295 0.2067 0.0157, -0.0295 0.2067 0.0
            ]
        }
        coordIndex [
            0,1,2,-1,2,1,3,-1,4,5,6,-1,6,5,7,-1,
        ]
    }
}
Shape{
    appearance Appearance {
        material  Material 	{
            diffuseColor 0.07058823529411765 0.07058823529411765 0.07058823529411765
            specularColor 0.00392156862745098 0.00392156862745098 0.00392156862745098
            ambientIntensity 0.102
            transparency 0.0
            shininess 0.5
        }
    }
    geometry IndexedFaceSet {
        ccw TRUE
        solid FALSE
        coord DEF co Coordinate {
            point [
                -0.2264 -0.0413 0.0551, -0.2264 -0.0807 0.0551, -0.2264 -0.2067 0.1575, -0.2264 0.128 0.0354, -0.2264 0.1674 0.0354, -0.2264 0.2067 0.0157, -0.2264 -0.1594 0.0354, -0.2264 -0.2067 0.0157, -0.2264 -0.1594 0.0551, -0.2264 -0.12 0.0551, -0.2264 -0.12 0.0354, -0.2264 -0.0807 0.0354, -0.2264 -0.0413 0.0354, -0.2264 -0.0525 0.0157, -0.2264 -0.0619 0.0157, -0.2264 -0.0818 0.0157, -0.2264 0.2067 0.1575, -0.2264 0.1674 0.0551, -0.2264 0.128 0.0551
            ]
        }
        coordIndex [
            0,1,2,-1,3,4,5,-1,6,7,8,-1,8,7,2,-1,8,2,9,-1,9,2,1,-1,9,1,10,-1,10,1,11,-1,12,13,11,-1,11,13,14,-1,6,10,7,-1,7,10,11,-1,7,11,15,-1,15,11,14,-1,5,4,16,-1,16,4,17,-1,16,17,18,-1,2,16,0,-1,0,16,18,-1,0,18,12,-1,12,18,3,-1,12,3,13,-1,13,3,5,-1,
        ]
    }
}
Shape{
    appearance Appearance {
        material  Material 	{
            diffuseColor 0.8313725490196079 0.8313725490196079 0.8196078431372549
            specularColor 0.6666666666666666 0.6666666666666666 0.6549019607843137
            ambientIntensity 0.83
            transparency 0.0
            shininess 0.5
        }
    }
    geometry IndexedFaceSet {
        ccw TRUE
        solid FALSE
        coord DEF co Coordinate {
            point [
                -0.2264 -0.1594 0.0354, -0.2264 -0.1594 0.0551, -0.2264 -0.12 0.0354, -0.2264 -0.12 0.0551, -0.2264 -0.0807 0.0354, -0.2264 -0.0807 0.0551, -0.2264 -0.0413 0.0354, -0.2264 -0.0413 0.0551
            ]
        }
        coordIndex [
            0,1,2,-1,2,1,3,-1,4,5,6,-1,6,5,7,-1,
        ]
    }
}
Shape{
    appearance Appearance {
        material  Material 	{
            diffuseColor 0.07058823529411765 0.07058823529411765 0.07058823529411765
            specularColor 0.00392156862745098 0.00392156862745098 0.00392156862745098
            ambientIntensity 0.102
            transparency 0.0
            shininess 0.5
        }
    }
    geometry IndexedFaceSet {
        ccw TRUE
        solid FALSE
        coord DEF co Coordinate {
            point [
                0.0343 -0.0697 0.0157, 0.0409 -0.0697 0.0157, 0.0373 -0.0779 0.0157, 0.0379 -0.0779 0.0157, 0.0374 -0.0786 0.0157, 0.0378 -0.0786 0.0157, 0.0376 -0.0793 0.0157, 0.0376 -0.0793 0.0157, -0.2264 -0.0818 0.0157, -0.2264 -0.0619 0.0157, -0.0392 -0.0619 0.0157, 0.1831 -0.1259 0.0157, 0.1089 -0.1259 0.0157, 0.1089 -0.0818 0.0157, -0.0047 -0.0619 0.0157, -0.0047 -0.0818 0.0157, -0.0066 -0.0652 0.0157, -0.0066 -0.063 0.0157, -0.0087 -0.0622 0.0157, -0.0107 -0.0619 0.0157, -0.0095 -0.0818 0.0157, -0.0089 -0.0818 0.0157, -0.0112 -0.0798 0.0157, -0.007 -0.065 0.0157, -0.0089 -0.0795 0.0157, -0.0066 -0.0785 0.0157, -0.0066 -0.0811 0.0157, -0.0132 -0.0795 0.0157, -0.0147 -0.079 0.0157, -0.016 -0.0781 0.0157, -0.0172 -0.0768 0.0157, -0.018 -0.0752 0.0157, -0.0186 -0.0731 0.0157, -0.0186 -0.0716 0.0157, -0.0184 -0.0695 0.0157, -0.0179 -0.0678 0.0157, -0.0117 -0.0639 0.0157, -0.0162 -0.0655 0.0157, -0.0135 -0.0641 0.0157, -0.015 -0.0647 0.0157, -0.0171 -0.0664 0.0157, -0.0091 -0.0642 0.0157, -0.0202 -0.0765 0.0157, -0.0191 -0.0784 0.0157, -0.0221 -0.0818 0.0157, -0.0173 -0.08 0.0157, -0.0164 -0.0627 0.0157, -0.0221 -0.0619 0.0157, -0.0145 -0.062 0.0157, -0.0132 -0.0619 0.0157, -0.018 -0.0637 0.0157, -0.0194 -0.0652 0.0157, -0.0205 -0.0671 0.0157, -0.0155 -0.0811 0.0157, -0.0133 -0.0817 0.0157, -0.0127 -0.0818 0.0157, -0.0211 -0.0692 0.0157, -0.0213 -0.0715 0.0157, -0.021 -0.0743 0.0157, -0.0115 -0.0618 0.0157, -0.0047 -0.0525 0.0157, -0.0121 -0.0618 0.0157, -0.0221 -0.0525 0.0157, -0.1713 0.0433 0.0157, -0.1713 -0.0433 0.0157, -0.2264 -0.0525 0.0157, -0.0392 -0.0525 0.0157, -0.0453 -0.0433 0.0157, -0.0453 0.0433 0.0157, -0.1673 0.2067 0.0157, -0.1673 0.1989 0.0157, -0.2264 0.2067 0.0157, -0.1831 0.1831 0.0157, -0.1831 0.126 0.0157, -0.0925 0.126 0.0157, -0.0392 0.1892 0.0157, -0.0453 0.1831 0.0157, -0.0925 0.1831 0.0157, -0.0453 0.126 0.0157, -0.1083 -0.2067 0.0157, -0.1083 -0.1988 0.0157, -0.0392 -0.2067 0.0157, -0.0925 -0.183 0.0157, -0.1673 -0.1988 0.0157, -0.1673 -0.2067 0.0157, -0.1831 -0.183 0.0157, -0.2264 -0.2067 0.0157, -0.1831 -0.1259 0.0157, -0.0925 -0.1259 0.0157, -0.0295 -0.1988 0.0157, -0.0295 -0.2067 0.0157, -0.0392 -0.1892 0.0157, -0.0453 -0.183 0.0157, -0.0453 -0.1259 0.0157, -0.0113 -0.0819 0.0157, -0.0047 -0.1259 0.0157, -0.0221 -0.1259 0.0157, -0.0392 -0.1259 0.0157, -0.0392 -0.0818 0.0157, 0.0097 -0.0818 0.0157, 0.0097 -0.1259 0.0157, 0.1082 -0.1988 0.0157, 0.1082 -0.2067 0.0157, 0.0925 -0.183 0.0157, 0.0295 -0.2067 0.0157, 0.0295 -0.1988 0.0157, 0.0453 -0.183 0.0157, 0.0925 -0.1259 0.0157, 0.0453 -0.1259 0.0157, 0.0282 -0.0818 0.0157, 0.0282 -0.1259 0.0157, 0.1673 -0.2067 0.0157, 0.1673 -0.1988 0.0157, 0.2264 -0.2067 0.0157, 0.1831 -0.183 0.0157, 0.2264 -0.0818 0.0157, 0.1673 0.1989 0.0157, 0.1673 0.2067 0.0157, 0.1831 0.1831 0.0157, 0.2264 0.2067 0.0157, 0.1831 0.126 0.0157, 0.2264 -0.0525 0.0157, 0.0453 0.0433 0.0157, 0.0282 0.126 0.0157, 0.1089 0.0433 0.0157, 0.0453 0.126 0.0157, 0.1089 -0.0433 0.0157, 0.1089 -0.0525 0.0157, 0.0453 -0.0433 0.0157, 0.0282 -0.0525 0.0157, 0.0295 0.1989 0.0157, 0.0295 0.2067 0.0157, 0.0453 0.1831 0.0157, 0.1082 0.2067 0.0157, 0.1082 0.1989 0.0157, 0.0925 0.1831 0.0157, 0.0925 0.126 0.0157, 0.1089 0.126 0.0157, 0.1434 0.0433 0.0157, 0.1712 0.0155 0.0157, 0.1712 -0.0433 0.0157, 0.0097 -0.0525 0.0157, 0.0097 0.126 0.0157, -0.0047 0.126 0.0157, -0.0221 0.126 0.0157, -0.0392 0.126 0.0157, -0.1083 0.1989 0.0157, -0.1083 0.2067 0.0157, -0.0392 0.2067 0.0157, -0.0295 0.2067 0.0157, -0.0295 0.1989 0.0157, 0.0097 -0.0619 0.0157, 0.0282 -0.0619 0.0157, 0.1089 -0.0619 0.0157, -0.0304 -0.0817 0.0157, -0.0304 -0.0642 0.0157, -0.023 -0.0642 0.0157, -0.033 -0.062 0.0157, -0.033 -0.0817 0.0157, -0.023 -0.062 0.0157, 0.0073 -0.0817 0.0157, 0.0073 -0.0795 0.0157, 0.0078 -0.0642 0.0157, 0.0078 -0.062 0.0157, -0.0028 -0.062 0.0157, -0.0028 -0.0817 0.0157, -0.0002 -0.0709 0.0157, -0.0002 -0.0642 0.0157, 0.0068 -0.0709 0.0157, 0.0068 -0.073 0.0157, -0.0002 -0.073 0.0157, -0.0002 -0.0795 0.0157, 0.02 -0.0814 0.0157, 0.0223 -0.0806 0.0157, 0.0243 -0.0793 0.0157, 0.0172 -0.0817 0.0157, 0.0265 -0.0674 0.0157, 0.0254 -0.0657 0.0157, 0.0238 -0.0641 0.0157, 0.0217 -0.0629 0.0157, 0.0195 -0.0622 0.0157, 0.017 -0.062 0.0157, 0.0116 -0.062 0.0157, 0.0116 -0.0817 0.0157, 0.025 -0.0786 0.0157, 0.0262 -0.0771 0.0157, 0.027 -0.0751 0.0157, 0.0274 -0.0731 0.0157, 0.0275 -0.0721 0.0157, 0.0272 -0.0695 0.0157, 0.0318 -0.062 0.0157, 0.0289 -0.062 0.0157, 0.0438 -0.062 0.0157, 0.0418 -0.0675 0.0157, 0.0337 -0.0675 0.0157, 0.0363 -0.0817 0.0157, 0.039 -0.0817 0.0157, 0.0467 -0.062 0.0157, 0.2264 -0.0619 0.0157, 0.0142 -0.0795 0.0157, 0.0142 -0.0642 0.0157, 0.0172 -0.0795 0.0157, 0.017 -0.0642 0.0157, 0.0246 -0.0697 0.0157, 0.0248 -0.072 0.0157, 0.0246 -0.074 0.0157, 0.0242 -0.0755 0.0157, 0.0195 -0.0793 0.0157, 0.0191 -0.0644 0.0157, 0.0208 -0.0649 0.0157, 0.0221 -0.0657 0.0157, 0.0235 -0.0768 0.0157, 0.0226 -0.0778 0.0157, 0.0211 -0.0787 0.0157, 0.0232 -0.0668 0.0157, 0.024 -0.0681 0.0157
            ]
        }
        coordIndex [
            0,1,2,-1,2,1,3,-1,2,3,4,-1,4,3,5,-1,4,5,6,-1,6,5,7,-1,8,9,10,-1,11,12,13,-1,14,15,16,-1,16,17,14,-1,14,17,18,-1,14,18,19,-1,15,20,21,-1,22,23,24,-1,24,23,16,-1,24,16,25,-1,25,16,15,-1,25,15,26,-1,26,15,21,-1,22,27,23,-1,23,27,28,-1,23,28,29,-1,29,30,23,-1,23,30,31,-1,23,31,32,-1,32,33,23,-1,23,33,34,-1,23,34,35,-1,36,37,38,-1,38,37,39,-1,35,40,23,-1,23,40,37,-1,23,37,41,-1,41,37,36,-1,42,43,44,-1,44,43,45,-1,46,47,48,-1,48,47,49,-1,46,50,47,-1,47,50,51,-1,47,51,52,-1,45,53,44,-1,44,53,54,-1,44,54,55,-1,52,56,47,-1,47,56,57,-1,47,57,44,-1,44,57,58,-1,44,58,42,-1,19,59,60,-1,60,59,61,-1,60,61,62,-1,62,61,49,-1,63,64,65,-1,65,64,66,-1,66,64,67,-1,66,67,68,-1,69,70,71,-1,71,70,72,-1,71,72,73,-1,65,71,63,-1,63,71,73,-1,63,73,68,-1,68,73,74,-1,75,76,77,-1,77,76,78,-1,79,80,81,-1,81,80,82,-1,83,84,85,-1,85,84,86,-1,85,86,87,-1,87,86,8,-1,87,8,88,-1,89,90,91,-1,91,90,81,-1,91,81,92,-1,92,81,82,-1,92,82,93,-1,94,95,55,-1,55,95,96,-1,55,96,44,-1,44,96,97,-1,44,97,98,-1,98,97,93,-1,99,100,95,-1,101,102,103,-1,103,102,104,-1,104,105,103,-1,103,105,106,-1,103,106,107,-1,107,106,108,-1,107,108,109,-1,109,108,110,-1,109,110,100,-1,111,112,113,-1,113,112,114,-1,113,114,115,-1,116,117,118,-1,118,117,119,-1,118,119,120,-1,120,119,121,-1,122,123,124,-1,124,123,125,-1,126,127,128,-1,128,127,129,-1,128,129,122,-1,130,131,132,-1,132,131,133,-1,133,134,132,-1,132,134,135,-1,132,135,125,-1,125,135,136,-1,125,136,124,-1,124,136,137,-1,124,137,138,-1,138,137,120,-1,138,120,139,-1,139,120,121,-1,139,121,140,-1,122,129,123,-1,123,129,141,-1,123,141,142,-1,142,141,60,-1,142,60,143,-1,143,60,62,-1,143,62,144,-1,144,62,66,-1,144,66,145,-1,145,66,68,-1,145,68,78,-1,78,68,74,-1,78,74,77,-1,146,147,77,-1,77,147,148,-1,77,148,75,-1,75,148,149,-1,75,149,150,-1,49,47,62,-1,62,47,10,-1,62,10,66,-1,66,10,9,-1,66,9,65,-1,19,60,14,-1,14,60,141,-1,14,141,151,-1,151,141,129,-1,151,129,152,-1,152,129,127,-1,152,127,153,-1,154,155,156,-1,47,157,10,-1,10,157,98,-1,10,98,8,-1,8,98,93,-1,8,93,88,-1,88,93,82,-1,157,158,98,-1,98,158,154,-1,98,154,44,-1,44,154,156,-1,44,156,47,-1,47,156,159,-1,47,159,157,-1,94,20,95,-1,95,20,15,-1,95,15,99,-1,99,15,160,-1,160,161,99,-1,99,161,162,-1,99,162,151,-1,151,162,163,-1,151,163,14,-1,14,163,164,-1,14,164,15,-1,15,164,165,-1,15,165,160,-1,166,167,168,-1,168,167,162,-1,168,162,169,-1,169,162,161,-1,169,161,170,-1,170,161,171,-1,172,173,109,-1,109,173,174,-1,100,99,109,-1,109,99,175,-1,109,175,172,-1,176,177,152,-1,152,177,178,-1,152,178,179,-1,179,180,152,-1,152,180,181,-1,152,181,151,-1,151,181,182,-1,151,182,99,-1,99,182,183,-1,99,183,175,-1,174,184,109,-1,109,184,185,-1,109,185,186,-1,186,187,109,-1,109,187,188,-1,109,188,152,-1,152,188,189,-1,152,189,176,-1,190,191,152,-1,192,193,194,-1,152,191,109,-1,109,191,195,-1,109,195,196,-1,194,190,192,-1,192,190,152,-1,192,152,197,-1,197,152,153,-1,197,153,196,-1,196,153,13,-1,196,13,109,-1,109,13,12,-1,109,12,107,-1,126,140,127,-1,127,140,121,-1,127,121,153,-1,153,121,198,-1,153,198,13,-1,13,198,115,-1,13,115,11,-1,11,115,114,-1,199,200,201,-1,201,200,202,-1,203,204,201,-1,204,205,201,-1,201,205,206,-1,201,206,207,-1,202,208,201,-1,201,208,209,-1,201,209,210,-1,211,212,206,-1,206,212,213,-1,206,213,207,-1,210,214,201,-1,201,214,215,-1,201,215,203,-1,
        ]
    }
}
Shape{
    appearance Appearance {
        material  Material 	{
            diffuseColor 1.0 1.0 1.0
            specularColor 0.8784313725490196 0.8784313725490196 0.8784313725490196
            ambientIntensity 1.0
            transparency 0.0
            shininess 0.5
        }
    }
    geometry IndexedFaceSet {
        ccw TRUE
        solid FALSE
        coord DEF co Coordinate {
            point [
                0.0343 -0.0697 0.0157, 0.0337 -0.0675 0.0157, 0.0409 -0.0697 0.0157, 0.0418 -0.0675 0.0157, 0.0373 -0.0779 0.0157, 0.0363 -0.0817 0.0157, 0.0289 -0.062 0.0157, 0.0318 -0.062 0.0157, 0.0374 -0.0786 0.0157, 0.0376 -0.0793 0.0157, 0.039 -0.0817 0.0157, 0.0376 -0.0793 0.0157, 0.0378 -0.0786 0.0157, 0.0379 -0.0779 0.0157, 0.0467 -0.062 0.0157, 0.0438 -0.062 0.0157, 0.0272 -0.0695 0.0157, 0.0275 -0.0721 0.0157, 0.0248 -0.072 0.0157, 0.0274 -0.0731 0.0157, 0.0246 -0.074 0.0157, 0.027 -0.0751 0.0157, 0.0242 -0.0755 0.0157, 0.0262 -0.0771 0.0157, 0.0235 -0.0768 0.0157, 0.025 -0.0786 0.0157, 0.0226 -0.0778 0.0157, 0.0243 -0.0793 0.0157, 0.0211 -0.0787 0.0157, 0.0223 -0.0806 0.0157, 0.0195 -0.0793 0.0157, 0.02 -0.0814 0.0157, 0.0172 -0.0795 0.0157, 0.0172 -0.0817 0.0157, 0.0142 -0.0795 0.0157, 0.0116 -0.0817 0.0157, 0.0142 -0.0642 0.0157, 0.0116 -0.062 0.0157, 0.017 -0.0642 0.0157, 0.017 -0.062 0.0157, 0.0191 -0.0644 0.0157, 0.0195 -0.0622 0.0157, 0.0208 -0.0649 0.0157, 0.0217 -0.0629 0.0157, 0.0221 -0.0657 0.0157, 0.0238 -0.0641 0.0157, 0.0232 -0.0668 0.0157, 0.0254 -0.0657 0.0157, 0.024 -0.0681 0.0157, 0.0265 -0.0674 0.0157, 0.0246 -0.0697 0.0157, -0.0028 -0.062 0.0157, 0.0078 -0.062 0.0157, 0.0078 -0.0642 0.0157, -0.0002 -0.0642 0.0157, -0.0002 -0.0709 0.0157, -0.0028 -0.0817 0.0157, 0.0073 -0.0795 0.0157, 0.0073 -0.0817 0.0157, -0.0002 -0.0795 0.0157, -0.0002 -0.073 0.0157, 0.0068 -0.073 0.0157, 0.0068 -0.0709 0.0157, -0.0089 -0.0795 0.0157, -0.0066 -0.0785 0.0157, -0.0066 -0.0811 0.0157, -0.0066 -0.063 0.0157, -0.0066 -0.0652 0.0157, -0.007 -0.065 0.0157, -0.0089 -0.0818 0.0157, -0.0095 -0.0818 0.0157, -0.0112 -0.0798 0.0157, -0.0087 -0.0622 0.0157, -0.0091 -0.0642 0.0157, -0.0107 -0.0619 0.0157, -0.0117 -0.0639 0.0157, -0.0115 -0.0618 0.0157, -0.0121 -0.0618 0.0157, -0.0135 -0.0641 0.0157, -0.0132 -0.0619 0.0157, -0.0113 -0.0819 0.0157, -0.0127 -0.0818 0.0157, -0.0132 -0.0795 0.0157, -0.0133 -0.0817 0.0157, -0.0147 -0.079 0.0157, -0.0155 -0.0811 0.0157, -0.016 -0.0781 0.0157, -0.0173 -0.08 0.0157, -0.0172 -0.0768 0.0157, -0.0191 -0.0784 0.0157, -0.018 -0.0752 0.0157, -0.0202 -0.0765 0.0157, -0.0186 -0.0731 0.0157, -0.021 -0.0743 0.0157, -0.0186 -0.0716 0.0157, -0.0213 -0.0715 0.0157, -0.0184 -0.0695 0.0157, -0.0211 -0.0692 0.0157, -0.0179 -0.0678 0.0157, -0.0205 -0.0671 0.0157, -0.0171 -0.0664 0.0157, -0.0194 -0.0652 0.0157, -0.0162 -0.0655 0.0157, -0.018 -0.0637 0.0157, -0.015 -0.0647 0.0157, -0.0164 -0.0627 0.0157, -0.0145 -0.062 0.0157, -0.0304 -0.0817 0.0157, -0.033 -0.0817 0.0157, -0.0304 -0.0642 0.0157, -0.033 -0.062 0.0157, -0.023 -0.0642 0.0157, -0.023 -0.062 0.0157
            ]
        }
        coordIndex [
            0,1,2,-1,2,1,3,-1,4,5,0,-1,0,5,6,-1,0,6,1,-1,1,6,7,-1,4,8,5,-1,5,8,9,-1,5,9,10,-1,10,9,11,-1,10,11,12,-1,12,13,10,-1,10,13,2,-1,10,2,14,-1,14,2,3,-1,14,3,15,-1,16,17,18,-1,18,17,19,-1,18,19,20,-1,20,19,21,-1,20,21,22,-1,22,21,23,-1,22,23,24,-1,24,23,25,-1,24,25,26,-1,26,25,27,-1,26,27,28,-1,28,27,29,-1,28,29,30,-1,30,29,31,-1,30,31,32,-1,32,31,33,-1,32,33,34,-1,34,33,35,-1,34,35,36,-1,36,35,37,-1,36,37,38,-1,38,37,39,-1,38,39,40,-1,40,39,41,-1,40,41,42,-1,42,41,43,-1,42,43,44,-1,44,43,45,-1,44,45,46,-1,46,45,47,-1,46,47,48,-1,48,47,49,-1,48,49,50,-1,50,49,16,-1,50,16,18,-1,51,52,53,-1,53,54,51,-1,51,54,55,-1,51,55,56,-1,57,58,59,-1,59,58,56,-1,59,56,60,-1,60,56,55,-1,60,55,61,-1,61,55,62,-1,63,64,65,-1,66,67,68,-1,65,69,63,-1,63,69,70,-1,63,70,71,-1,66,68,72,-1,72,68,73,-1,72,73,74,-1,74,73,75,-1,74,75,76,-1,76,75,77,-1,77,75,78,-1,77,78,79,-1,70,80,71,-1,71,80,81,-1,71,81,82,-1,82,81,83,-1,82,83,84,-1,84,83,85,-1,84,85,86,-1,86,85,87,-1,86,87,88,-1,88,87,89,-1,88,89,90,-1,90,89,91,-1,90,91,92,-1,92,91,93,-1,92,93,94,-1,94,93,95,-1,94,95,96,-1,96,95,97,-1,96,97,98,-1,98,97,99,-1,98,99,100,-1,100,99,101,-1,100,101,102,-1,102,101,103,-1,102,103,104,-1,104,103,105,-1,104,105,78,-1,78,105,106,-1,78,106,79,-1,107,108,109,-1,109,108,110,-1,109,110,111,-1,111,110,112,-1,
        ]
    }
}
Shape{
    appearance Appearance {
        material  Material 	{
            diffuseColor 0.8313725490196079 0.8313725490196079 0.8196078431372549
            specularColor 0.6666666666666666 0.6666666666666666 0.6549019607843137
            ambientIntensity 0.83
            transparency 0.0
            shininess 0.5
        }
    }
    geometry IndexedFaceSet {
        ccw TRUE
        solid FALSE
        coord DEF co Coordinate {
            point [
                -0.2264 0.128 0.0354, -0.2264 0.128 0.0551, -0.2264 0.1674 0.0354, -0.2264 0.1674 0.0551, -0.1673 -0.2067 0.0157, -0.1673 -0.2067 0.0, -0.1083 -0.2067 0.0157, -0.1083 -0.2067 0.0
            ]
        }
        coordIndex [
            0,1,2,-1,2,1,3,-1,4,5,6,-1,6,5,7,-1,
        ]
    }
}
Shape{
    appearance Appearance {
        material  Material 	{
            diffuseColor 0.07058823529411765 0.07058823529411765 0.07058823529411765
            specularColor 0.00392156862745098 0.00392156862745098 0.00392156862745098
            ambientIntensity 0.102
            transparency 0.0
            shininess 0.5
        }
    }
    geometry IndexedFaceSet {
        ccw TRUE
        solid FALSE
        coord DEF co Coordinate {
            point [
                0.2264 -0.2067 0.1575, 0.2264 -0.2067 0.0157, 0.2264 -0.0818 0.0157, 0.2264 0.2067 0.0157, 0.2264 0.2067 0.1575, 0.2264 -0.0525 0.0157, 0.2264 -0.0619 0.0157
            ]
        }
        coordIndex [
            0,1,2,-1,3,4,5,-1,5,4,0,-1,5,0,6,-1,6,0,2,-1,
        ]
    }
}
Shape{
    appearance Appearance {
        material  Material 	{
            diffuseColor 0.8313725490196079 0.8313725490196079 0.8196078431372549
            specularColor 0.6666666666666666 0.6666666666666666 0.6549019607843137
            ambientIntensity 0.83
            transparency 0.0
            shininess 0.5
        }
    }
    geometry IndexedFaceSet {
        ccw TRUE
        solid FALSE
        coord DEF co Coordinate {
            point [
                -0.1083 0.2067 0.0157, -0.1083 0.2067 0.0, -0.1673 0.2067 0.0157, -0.1673 0.2067 0.0
            ]
        }
        coordIndex [
            0,1,2,-1,2,1,3,-1,
        ]
    }
}
Shape{
    appearance Appearance {
        material  Material 	{
            diffuseColor 0.07058823529411765 0.07058823529411765 0.07058823529411765
            specularColor 0.00392156862745098 0.00392156862745098 0.00392156862745098
            ambientIntensity 0.102
            transparency 0.0
            shininess 0.5
        }
    }
    geometry IndexedFaceSet {
        ccw TRUE
        solid FALSE
        coord DEF co Coordinate {
            point [
                0.1575 0.1109 0.1575, 0.1527 0.109 0.1575, 0.2264 -0.2067 0.1575, 0.1615 0.1141 0.1575, 0.1647 0.1378 0.1575, 0.1666 0.1331 0.1575, 0.2264 0.2067 0.1575, 0.1306 0.1378 0.1575, 0.1337 0.1419 0.1575, -0.2264 0.2067 0.1575, 0.1286 0.1331 0.1575, 0.1527 0.147 0.1575, 0.1575 0.145 0.1575, 0.1615 0.1419 0.1575, 0.1673 0.128 0.1575, 0.1666 0.1229 0.1575, 0.1647 0.1182 0.1575, 0.1476 0.1083 0.1575, 0.1425 0.109 0.1575, -0.2264 -0.2067 0.1575, 0.1378 0.1109 0.1575, 0.1337 0.1141 0.1575, 0.1306 0.1182 0.1575, 0.1286 0.1229 0.1575, 0.1279 0.128 0.1575, 0.1378 0.145 0.1575, 0.1425 0.147 0.1575, 0.1476 0.1477 0.1575
            ]
        }
        coordIndex [
            0,1,2,-1,0,2,3,-1,4,5,6,-1,7,8,9,-1,7,9,10,-1,11,12,6,-1,6,12,13,-1,6,13,4,-1,5,14,6,-1,6,14,15,-1,6,15,2,-1,2,15,16,-1,2,16,3,-1,1,17,2,-1,2,17,18,-1,2,18,19,-1,19,18,20,-1,19,20,21,-1,21,22,19,-1,19,22,23,-1,19,23,9,-1,9,23,24,-1,9,24,10,-1,8,25,9,-1,9,25,26,-1,9,26,6,-1,6,26,27,-1,6,27,11,-1,
        ]
    }
}
Shape{
    appearance Appearance {
        material  Material 	{
            diffuseColor 0.8313725490196079 0.8313725490196079 0.8196078431372549
            specularColor 0.6666666666666666 0.6666666666666666 0.6549019607843137
            ambientIntensity 0.83
            transparency 0.0
            shininess 0.5
        }
    }
    geometry IndexedFaceSet {
        ccw TRUE
        solid FALSE
        coord DEF co Coordinate {
            point [
                0.1712 0.0155 0.0, 0.1434 0.0433 0.0, 0.1712 0.0155 0.0157, 0.1434 0.0433 0.0157, 0.1712 -0.0433 0.0, 0.1712 -0.0433 0.0157, 0.0453 -0.0433 0.0157, 0.0453 -0.0433 0.0, 0.1089 -0.0433 0.0157, 0.0453 0.0433 0.0, 0.0453 0.0433 0.0157, 0.1089 0.0433 0.0157, -0.0453 -0.0433 0.0, -0.0453 0.0433 0.0, -0.0453 -0.0433 0.0157, -0.0453 0.0433 0.0157, -0.1713 -0.0433 0.0, -0.1713 -0.0433 0.0157, -0.1713 0.0433 0.0, -0.1713 0.0433 0.0157, 0.0295 -0.2067 0.0, 0.0295 -0.1988 0.0, 0.0295 -0.2067 0.0157, 0.0295 -0.1988 0.0157, -0.0295 -0.1988 0.0, -0.0295 -0.2067 0.0, -0.0295 -0.1988 0.0157, -0.0295 -0.2067 0.0157, -0.0453 -0.183 0.0157, -0.0453 -0.183 0.0, -0.0392 -0.1892 0.0157, -0.0453 -0.1259 0.0, -0.0453 -0.1259 0.0157, 0.0282 -0.1259 0.0157, 0.0453 -0.1259 0.0157, 0.0453 -0.1259 0.0, -0.0392 -0.1259 0.0157, -0.0221 -0.1259 0.0157, -0.0047 -0.1259 0.0157, 0.0097 -0.1259 0.0157, 0.0453 -0.183 0.0, 0.0453 -0.183 0.0157, 0.1831 0.1831 0.0, 0.1673 0.1989 0.0, 0.1831 0.1831 0.0157, 0.1673 0.1989 0.0157, 0.1831 0.126 0.0, 0.1831 0.126 0.0157, 0.0925 0.126 0.0, 0.1089 0.126 0.0157, 0.0925 0.126 0.0157, 0.0925 0.1831 0.0, 0.0925 0.1831 0.0157, 0.1082 0.1989 0.0, 0.1082 0.1989 0.0157, 0.1082 0.2067 0.0, 0.1082 0.2067 0.0157, 0.1673 0.2067 0.0, 0.1673 0.2067 0.0157, -0.1083 -0.2067 0.0, -0.1083 -0.1988 0.0, -0.1083 -0.2067 0.0157, -0.1083 -0.1988 0.0157, -0.1673 -0.1988 0.0, -0.1673 -0.2067 0.0, -0.1673 -0.1988 0.0157, -0.1673 -0.2067 0.0157, -0.1831 -0.183 0.0, -0.1831 -0.183 0.0157, -0.1831 -0.1259 0.0, -0.1831 -0.1259 0.0157, -0.0925 -0.1259 0.0, -0.0925 -0.1259 0.0157, -0.0925 -0.183 0.0, -0.0925 -0.183 0.0157, -0.1083 0.1989 0.0, -0.1083 0.2067 0.0, -0.1083 0.1989 0.0157, -0.1083 0.2067 0.0157, -0.0925 0.1831 0.0, -0.0925 0.1831 0.0157, -0.0925 0.126 0.0, -0.0925 0.126 0.0157, -0.1831 0.126 0.0, -0.1831 0.126 0.0157, -0.1831 0.1831 0.0, -0.1831 0.1831 0.0157, -0.1673 0.1989 0.0, -0.1673 0.1989 0.0157, -0.1673 0.2067 0.0, -0.1673 0.2067 0.0157, 0.1082 -0.1988 0.0, 0.1082 -0.2067 0.0, 0.1082 -0.1988 0.0157, 0.1082 -0.2067 0.0157, 0.0925 -0.183 0.0, 0.0925 -0.183 0.0157, 0.0925 -0.1259 0.0, 0.0925 -0.1259 0.0157, 0.1831 -0.1259 0.0157, 0.1831 -0.1259 0.0, 0.1089 -0.1259 0.0157, 0.1831 -0.183 0.0, 0.1831 -0.183 0.0157, 0.1673 -0.1988 0.0, 0.1673 -0.1988 0.0157, 0.1673 -0.2067 0.0, 0.1673 -0.2067 0.0157, 0.0453 0.126 0.0, 0.0453 0.1831 0.0, 0.0453 0.126 0.0157, 0.0453 0.1831 0.0157, 0.0282 0.126 0.0157, 0.0097 0.126 0.0157, -0.0453 0.126 0.0, -0.0047 0.126 0.0157, -0.0221 0.126 0.0157, -0.0392 0.126 0.0157, -0.0453 0.126 0.0157, -0.0453 0.1831 0.0, -0.0453 0.1831 0.0157, -0.0295 0.1989 0.0157, -0.0295 0.1989 0.0, -0.0392 0.1892 0.0157, -0.0295 0.2067 0.0, -0.0295 0.2067 0.0157, 0.0295 0.1989 0.0, 0.0295 0.2067 0.0, 0.0295 0.1989 0.0157, 0.0295 0.2067 0.0157
            ]
        }
        coordIndex [
            0,1,2,-1,2,1,3,-1,4,0,5,-1,5,0,2,-1,6,7,8,-1,8,7,4,-1,8,4,5,-1,9,7,10,-1,10,7,6,-1,9,10,1,-1,1,10,11,-1,1,11,3,-1,9,1,7,-1,7,1,0,-1,7,0,4,-1,12,13,14,-1,14,13,15,-1,16,12,17,-1,17,12,14,-1,18,16,19,-1,19,16,17,-1,13,18,15,-1,15,18,19,-1,16,18,12,-1,12,18,13,-1,20,21,22,-1,22,21,23,-1,24,25,26,-1,26,25,27,-1,28,29,30,-1,30,29,24,-1,30,24,26,-1,31,29,32,-1,32,29,28,-1,33,34,35,-1,31,32,36,-1,36,37,31,-1,31,37,38,-1,31,38,35,-1,35,38,39,-1,35,39,33,-1,40,35,41,-1,41,35,34,-1,21,40,23,-1,23,40,41,-1,21,20,25,-1,25,24,21,-1,21,24,29,-1,21,29,40,-1,40,29,31,-1,40,31,35,-1,42,43,44,-1,44,43,45,-1,46,42,47,-1,47,42,44,-1,46,47,48,-1,48,47,49,-1,48,49,50,-1,51,48,52,-1,52,48,50,-1,53,51,54,-1,54,51,52,-1,55,53,56,-1,56,53,54,-1,43,57,45,-1,45,57,58,-1,55,57,53,-1,53,57,43,-1,53,43,51,-1,51,43,48,-1,48,43,42,-1,48,42,46,-1,59,60,61,-1,61,60,62,-1,63,64,65,-1,65,64,66,-1,67,63,68,-1,68,63,65,-1,69,67,70,-1,70,67,68,-1,71,69,72,-1,72,69,70,-1,73,71,74,-1,74,71,72,-1,60,73,62,-1,62,73,74,-1,59,64,60,-1,60,64,63,-1,60,63,73,-1,73,63,71,-1,71,63,67,-1,71,67,69,-1,75,76,77,-1,77,76,78,-1,79,75,80,-1,80,75,77,-1,81,79,82,-1,82,79,80,-1,83,81,84,-1,84,81,82,-1,85,83,86,-1,86,83,84,-1,87,85,88,-1,88,85,86,-1,89,87,90,-1,90,87,88,-1,87,89,76,-1,76,75,87,-1,87,75,79,-1,87,79,85,-1,85,79,81,-1,85,81,83,-1,91,92,93,-1,93,92,94,-1,95,91,96,-1,96,91,93,-1,97,95,98,-1,98,95,96,-1,99,100,101,-1,101,100,97,-1,101,97,98,-1,102,100,103,-1,103,100,99,-1,104,102,105,-1,105,102,103,-1,106,104,107,-1,107,104,105,-1,104,106,92,-1,92,91,104,-1,104,91,95,-1,104,95,102,-1,102,95,97,-1,102,97,100,-1,108,109,110,-1,110,109,111,-1,110,112,108,-1,108,112,113,-1,108,113,114,-1,114,113,115,-1,115,116,114,-1,114,116,117,-1,114,117,118,-1,119,114,120,-1,120,114,118,-1,121,122,123,-1,123,122,119,-1,123,119,120,-1,124,122,125,-1,125,122,121,-1,126,127,128,-1,128,127,129,-1,109,126,111,-1,111,126,128,-1,124,127,122,-1,122,127,126,-1,122,126,119,-1,119,126,114,-1,114,126,109,-1,114,109,108,-1,
        ]
    }
}
Shape{
    appearance Appearance {
        material  Material 	{
            diffuseColor 1.0 1.0 1.0
            specularColor 0.8784313725490196 0.8784313725490196 0.8784313725490196
            ambientIntensity 1.0
            transparency 0.0
            shininess 0.5
        }
    }
    geometry IndexedFaceSet {
        ccw TRUE
        solid FALSE
        coord DEF co Coordinate {
            point [
                0.1673 0.128 0.1535, 0.1673 0.128 0.1575, 0.1666 0.1331 0.1535, 0.1666 0.1331 0.1575, 0.1647 0.1378 0.1535, 0.1647 0.1378 0.1575, 0.1615 0.1419 0.1535, 0.1615 0.1419 0.1575, 0.1575 0.145 0.1535, 0.1575 0.145 0.1575, 0.1527 0.147 0.1535, 0.1527 0.147 0.1575, 0.1476 0.1477 0.1535, 0.1476 0.1477 0.1575, 0.1425 0.147 0.1535, 0.1425 0.147 0.1575, 0.1378 0.145 0.1535, 0.1378 0.145 0.1575, 0.1337 0.1419 0.1535, 0.1337 0.1419 0.1575, 0.1306 0.1378 0.1535, 0.1306 0.1378 0.1575, 0.1286 0.1331 0.1535, 0.1286 0.1331 0.1575, 0.1279 0.128 0.1535, 0.1279 0.128 0.1575, 0.1286 0.1229 0.1535, 0.1286 0.1229 0.1575, 0.1306 0.1182 0.1535, 0.1306 0.1182 0.1575, 0.1337 0.1141 0.1535, 0.1337 0.1141 0.1575, 0.1378 0.1109 0.1535, 0.1378 0.1109 0.1575, 0.1425 0.109 0.1535, 0.1425 0.109 0.1575, 0.1476 0.1083 0.1535, 0.1476 0.1083 0.1575, 0.1527 0.109 0.1535, 0.1527 0.109 0.1575, 0.1575 0.1109 0.1535, 0.1575 0.1109 0.1575, 0.1615 0.1141 0.1535, 0.1615 0.1141 0.1575, 0.1647 0.1182 0.1535, 0.1647 0.1182 0.1575, 0.1666 0.1229 0.1535, 0.1666 0.1229 0.1575, 0.1476 0.128 0.1535
            ]
        }
        coordIndex [
            0,1,2,-1,2,1,3,-1,2,3,4,-1,4,3,5,-1,4,5,6,-1,6,5,7,-1,6,7,8,-1,8,7,9,-1,8,9,10,-1,10,9,11,-1,10,11,12,-1,12,11,13,-1,12,13,14,-1,14,13,15,-1,14,15,16,-1,16,15,17,-1,16,17,18,-1,18,17,19,-1,18,19,20,-1,20,19,21,-1,20,21,22,-1,22,21,23,-1,22,23,24,-1,24,23,25,-1,24,25,26,-1,26,25,27,-1,26,27,28,-1,28,27,29,-1,28,29,30,-1,30,29,31,-1,30,31,32,-1,32,31,33,-1,32,33,34,-1,34,33,35,-1,34,35,36,-1,36,35,37,-1,36,37,38,-1,38,37,39,-1,38,39,40,-1,40,39,41,-1,40,41,42,-1,42,41,43,-1,42,43,44,-1,44,43,45,-1,44,45,46,-1,46,45,47,-1,46,47,0,-1,0,47,1,-1,44,46,48,-1,48,46,0,-1,48,0,2,-1,38,40,48,-1,48,40,42,-1,48,42,44,-1,32,34,48,-1,48,34,36,-1,48,36,38,-1,26,28,48,-1,48,28,30,-1,48,30,32,-1,20,22,48,-1,48,22,24,-1,48,24,26,-1,14,16,48,-1,48,16,18,-1,48,18,20,-1,8,10,48,-1,48,10,12,-1,48,12,14,-1,2,4,48,-1,48,4,6,-1,48,6,8,-1,
        ]
    }
}